<?xml version="1.0" encoding="iso-8859-1"?>
<!-- Generator: Adobe Illustrator 19.0.0, SVG Export Plug-In . SVG Version: 6.00 Build 0)  -->
<svg version="1.1" id="Layer_1" xmlns="http://www.w3.org/2000/svg" xmlns:xlink="http://www.w3.org/1999/xlink" x="0px" y="0px"
	 viewBox="0 0 512.001 512.001" style="enable-background:new 0 0 512.001 512.001;" xml:space="preserve">
<path style="fill:#CEE8FA;" d="M256,206.55L256,206.55c-14.272,0-25.841,11.57-25.841,25.841v32.303h-32.303
	c-14.272,0-25.841,11.57-25.841,25.841l0,0c0,14.272,11.57,25.841,25.841,25.841h32.303v32.303c0,14.272,11.57,25.841,25.841,25.841
	l0,0c14.272,0,25.841-11.57,25.841-25.841v-32.303h32.303c14.272,0,25.841-11.57,25.841-25.841l0,0
	c0-14.272-11.57-25.841-25.841-25.841h-32.303v-32.303C281.843,218.12,270.272,206.55,256,206.55z"/>
<g>
	<path style="fill:#2D527C;" d="M256,389.788c-22.666,0-41.107-18.441-41.107-41.108v-17.036h-17.038
		c-22.668,0-41.108-18.441-41.108-41.108s18.441-41.108,41.108-41.108h17.038v-17.036c0-22.668,18.441-41.108,41.107-41.108
		s41.107,18.441,41.107,41.108v17.036h17.038c22.668,0,41.108,18.441,41.108,41.108s-18.441,41.108-41.108,41.108h-17.038v17.036
		C297.107,371.348,278.666,389.788,256,389.788z M197.856,279.96c-5.831,0-10.577,4.744-10.577,10.577s4.744,10.577,10.577,10.577
		h32.303c8.431,0,15.265,6.836,15.265,15.265v32.301c0,5.831,4.744,10.577,10.576,10.577c5.831,0,10.576-4.744,10.576-10.577
		v-32.301c0-8.43,6.834-15.265,15.265-15.265h32.303c5.831,0,10.577-4.744,10.577-10.577s-4.744-10.577-10.577-10.577h-32.303
		c-8.431,0-15.265-6.836-15.265-15.265v-32.301c0-5.831-4.744-10.577-10.576-10.577c-5.831,0-10.576,4.744-10.576,10.577v32.301
		c0,8.43-6.834,15.265-15.265,15.265H197.856z"/>
	<path style="fill:#2D527C;" d="M443.733,488.985c-8.431,0-15.265-6.836-15.265-15.265s6.834-15.265,15.265-15.265
		c20.808,0,37.736-16.928,37.736-37.736V160.353c0-20.808-16.928-37.736-37.736-37.736H68.267
		c-20.808,0-37.736,16.928-37.736,37.736V420.72c0,20.808,16.928,37.736,37.736,37.736c8.431,0,15.265,6.836,15.265,15.265
		s-6.834,15.265-15.265,15.265C30.624,488.987,0,458.362,0,420.72V160.353c0-37.641,30.625-68.267,68.267-68.267h375.467
		c37.643,0,68.267,30.625,68.267,68.267V420.72C512,458.362,481.376,488.985,443.733,488.985z"/>
	<path style="fill:#2D527C;" d="M443.733,488.985H385.48c-8.431,0-15.265-6.836-15.265-15.265s6.834-15.265,15.265-15.265h58.253
		c20.808,0,37.736-16.928,37.736-37.736V160.353c0-20.808-16.928-37.736-37.736-37.736H68.267
		c-20.808,0-37.736,16.928-37.736,37.736V420.72c0,20.808,16.928,37.736,37.736,37.736h224.879c8.431,0,15.265,6.836,15.265,15.265
		s-6.834,15.265-15.265,15.265H68.267C30.624,488.987,0,458.362,0,420.72V160.353c0-37.641,30.625-68.267,68.267-68.267h375.467
		c37.643,0,68.267,30.625,68.267,68.267V420.72C512,458.362,481.376,488.985,443.733,488.985z"/>
	<path style="fill:#2D527C;" d="M496.735,231.001h-61.519c-35.842,0-65-29.152-65-64.985c0-8.43,6.834-15.265,15.265-15.265
		s15.265,6.836,15.265,15.265c0,18.998,15.462,34.454,34.469,34.454h46.254v-40.117c0-20.808-16.928-37.736-37.736-37.736
		c-8.431,0-15.265-6.836-15.265-15.265s6.834-15.265,15.265-15.265c37.643,0,68.267,30.625,68.267,68.267v55.383
		C512,224.167,505.166,231.001,496.735,231.001z"/>
	<path style="fill:#2D527C;" d="M68.267,488.985C30.624,488.985,0,458.36,0,420.719v-55.383c0-8.43,6.834-15.265,15.265-15.265
		h61.519c35.842,0,65,29.152,65,64.985c0,8.43-6.834,15.265-15.265,15.265s-15.265-6.836-15.265-15.265
		c0-18.998-15.462-34.454-34.469-34.454H30.531v40.117c0,20.808,16.928,37.736,37.736,37.736c8.431,0,15.265,6.836,15.265,15.265
		S76.698,488.985,68.267,488.985z"/>
</g>
<path style="fill:#CEE8FA;" d="M385.481,415.055v58.665h58.253c29.279,0,53.001-23.722,53.001-53.001v-55.383h-61.519
	C407.753,365.336,385.481,387.593,385.481,415.055z"/>
<path style="fill:#2D527C;" d="M443.733,488.985H385.48c-8.431,0-15.265-6.836-15.265-15.265v-58.665
	c0-35.834,29.16-64.985,65-64.985h61.519c8.431,0,15.265,6.836,15.265,15.265v55.383C512,458.362,481.376,488.985,443.733,488.985z
	 M400.746,458.455h42.987c20.808,0,37.736-16.928,37.736-37.736v-40.118h-46.254c-19.007,0-34.469,15.456-34.469,34.454V458.455
	L400.746,458.455z"/>
<path style="fill:#CEE8FA;" d="M126.916,166.016v-58.665H68.664c-29.279,0-53.001,23.722-53.001,53.001v55.383h61.519
	C104.644,215.736,126.916,193.479,126.916,166.016z"/>
<g>
	<path style="fill:#2D527C;" d="M77.182,231.001h-61.52c-8.431,0-15.265-6.836-15.265-15.265v-55.383
		c0-37.641,30.624-68.267,68.267-68.267h58.253c8.431,0,15.265,6.836,15.265,15.265v58.665
		C142.182,201.85,113.023,231.001,77.182,231.001z M30.928,200.47h46.254c19.007,0,34.469-15.456,34.469-34.454v-43.399H68.664
		c-20.807,0-37.736,16.928-37.736,37.736C30.928,160.353,30.928,200.47,30.928,200.47z"/>
	<path style="fill:#2D527C;" d="M343.993,121.467H168.009c-8.431,0-15.265-6.836-15.265-15.265V73.56
		c0-27.871,22.675-50.545,50.545-50.545h105.424c27.871,0,50.545,22.675,50.545,50.545v32.643
		C359.258,114.633,352.424,121.467,343.993,121.467z M183.274,90.937h145.453V73.56c0-11.035-8.979-20.014-20.014-20.014H203.289
		c-11.035,0-20.014,8.979-20.014,20.014L183.274,90.937L183.274,90.937z"/>
</g>
<g>
</g>
<g>
</g>
<g>
</g>
<g>
</g>
<g>
</g>
<g>
</g>
<g>
</g>
<g>
</g>
<g>
</g>
<g>
</g>
<g>
</g>
<g>
</g>
<g>
</g>
<g>
</g>
<g>
</g>
</svg>
